HIERARCHY
ROOT hip
{
	OFFSET 0.000000 0.000000 0.000000
	CHANNELS 6 Xposition Yposition Zposition Xrotation Zrotation Yrotation 
	JOINT abdomen
	{
		OFFSET 0.000000 3.422050 0.000000
		CHANNELS 3 Xrotation Zrotation Yrotation 
		JOINT chest
		{
			OFFSET 0.000000 8.486693 -0.684411
			CHANNELS 3 Xrotation Zrotation Yrotation 
			JOINT neck
			{
				OFFSET 0.000000 10.266162 -0.273764
				CHANNELS 3 Xrotation Zrotation Yrotation 
				JOINT head
				{
					OFFSET 0.000000 3.148285 0.000000
					CHANNELS 3 Xrotation Zrotation Yrotation 
					End Site
					{
						OFFSET 0.000000 3.148289 0.000000
					}
				}
			}
			JOINT lCollar
			{
				OFFSET 3.422053 6.707223 -0.821293
				CHANNELS 3 Yrotation Zrotation Xrotation 
				JOINT lShldr
				{
					OFFSET 3.285171 0.000000 0.000000
					CHANNELS 3 Zrotation Yrotation Xrotation 
					JOINT lForeArm
					{
						OFFSET 10.129278 0.000000 0.000000
						CHANNELS 3 Yrotation Zrotation Xrotation 
						JOINT lHand
						{
							OFFSET 8.486692 0.000000 0.000000
							CHANNELS 3 Zrotation Yrotation Xrotation 
							End Site
							{
								OFFSET 4.106464 0.000000 0.000000
							}
						}
					}
				}
			}
			JOINT rCollar
			{
				OFFSET -3.558935 6.707223 -0.821293
				CHANNELS 3 Yrotation Zrotation Xrotation 
				JOINT rShldr
				{
					OFFSET -3.148289 0.000000 0.000000
					CHANNELS 3 Zrotation Yrotation Xrotation 
					JOINT rForeArm
					{
						OFFSET -10.266159 0.000000 0.000000
						CHANNELS 3 Yrotation Zrotation Xrotation 
						JOINT rHand
						{
							OFFSET -8.349810 0.000000 0.000000
							CHANNELS 3 Zrotation Yrotation Xrotation 
							End Site
							{
								OFFSET -4.106464 0.000000 0.000000
							}
						}
					}
				}
			}
		}
	}
	JOINT lThigh
	{
		OFFSET 5.338403 -1.642589 1.368821
		CHANNELS 3 Xrotation Zrotation Yrotation 
		JOINT lShin
		{
			OFFSET -2.053232 -20.121670 0.000000
			CHANNELS 3 Xrotation Zrotation Yrotation 
			JOINT lFoot
			{
				OFFSET 0.000000 -19.300380 -1.231939
				CHANNELS 3 Xrotation Yrotation Zrotation 
				End Site
				{
					OFFSET 0.000000 -2.463878 4.653993
				}
			}
		}
	}
	JOINT rThigh
	{
		OFFSET -5.338403 -1.642589 1.368821
		CHANNELS 3 Xrotation Zrotation Yrotation 
		JOINT rShin
		{
			OFFSET 2.053232 -20.121670 0.000000
			CHANNELS 3 Xrotation Zrotation Yrotation 
			JOINT rFoot
			{
				OFFSET 0.000000 -19.300380 -1.231939
				CHANNELS 3 Xrotation Yrotation Zrotation 
				End Site
				{
					OFFSET 0.000000 -2.463878 4.653993
				}
			}
		}
	}
}
MOTION
Frames: 13
Frame Time: 0.049897
0.000000 6.189011 0.952190 -82.000397 0.000000 0.000000 -8.528577 -0.020871 -0.021238 -6.806825 -0.149973 -0.725032 17.998348 0.000000 0.000000 9.390966 18.356707 6.734526 3.837014 -14.863377 15.186639 -59.100521 -52.218445 -12.055323 2.999032 -15.192506 34.948418 -45.614079 7.723719 -23.032572 -3.840051 14.859422 15.186844 59.092735 52.214500 -12.060863 -3.001329 15.188094 34.948444 45.611301 -7.727595 -23.033817 -13.629470 19.058418 45.478439 45.353935 1.264164 -0.462944 18.174501 -0.263672 0.886846 -13.627502 -19.062138 -45.482399 45.353977 -1.266047 0.458370 18.174477 0.259660 -0.889746 
0.000000 6.311565 0.952190 -82.000397 0.000000 0.000000 -7.928603 -0.020762 -0.021349 -8.502576 -0.149725 -0.724977 17.998348 0.000000 0.000000 9.375638 18.173622 6.663599 4.768777 -14.178193 16.559458 -60.097614 -52.473717 -11.276234 2.942858 -15.537198 34.932533 -45.614079 7.723719 -23.032572 -4.805963 14.139315 16.547350 60.113739 52.473465 -11.261073 -2.943482 15.542922 34.929398 45.611305 -7.727596 -23.033819 -13.444818 18.788963 44.759888 45.353935 1.264164 -0.462944 18.129189 0.223371 0.278901 -13.619330 -18.626070 -44.277351 45.353977 -1.266047 0.458370 18.168423 -0.614330 0.060664 
0.000000 6.434119 0.952190 -82.000397 0.000000 0.000000 -7.328498 -0.020652 -0.021460 -10.201311 -0.149474 -0.724929 17.998348 0.000000 0.000000 9.360559 17.990479 6.592783 5.682040 -13.470580 17.918673 -61.106358 -52.720695 -10.485240 2.886485 -15.881899 34.916256 -45.614079 7.723719 -23.032572 -5.752528 13.396122 17.893097 61.146820 52.723686 -10.448909 -2.885407 15.897766 34.909943 45.611305 -7.727596 -23.033819 -13.256827 18.521606 44.041256 45.353935 1.264164 -0.462944 18.089027 0.711048 -0.328926 -13.601503 -18.189816 -43.074070 45.353977 -1.266047 0.458370 18.176891 -1.489191 1.012217 
0.000000 6.556674 0.952190 -82.000397 0.000000 0.000000 -6.728293 -0.020540 -0.021569 -11.902299 -0.149223 -0.724889 17.998348 0.000000 0.000000 9.345734 17.807289 6.522079 6.576228 -12.741376 19.263784 -62.126522 -52.959171 -9.682557 2.829908 -16.226603 34.899593 -45.614079 7.723719 -23.032572 -6.679188 12.630735 19.223608 62.191784 52.964973 -9.624598 -2.827100 16.252609 34.890087 45.611305 -7.727596 -23.033819 -13.065548 18.256416 43.322567 45.353935 1.264164 -0.462944 18.054029 1.199260 -0.936667 -13.574080 -17.753679 -41.872692 45.353977 -1.266047 0.458370 18.199919 -2.364460 1.965117 
0.000000 6.679228 0.952190 -82.000397 0.000000 0.000000 -6.128023 -0.020428 -0.021677 -13.604790 -0.148969 -0.724856 17.998348 0.000000 0.000000 9.331155 17.624046 6.451483 7.450830 -11.991443 20.594341 -63.157829 -53.188934 -8.868429 2.773125 -16.571304 34.882553 -45.614079 7.723719 -23.032572 -7.585452 11.844076 20.538460 63.248360 53.197132 -8.788417 -2.768553 16.607443 34.869804 45.611305 -7.727596 -23.033819 -12.871030 17.993467 42.603886 45.353935 1.264164 -0.462944 18.024204 1.687906 -1.544352 -13.537131 -17.317972 -40.673397 45.353977 -1.266047 0.458370 18.237568 -3.239670 2.919569 
0.000000 6.801783 0.952190 -82.000397 0.000000 0.000000 -5.527721 -0.020314 -0.021784 -15.308030 -0.148715 -0.724831 17.998348 0.000000 0.000000 9.316827 17.440754 6.380995 8.305402 -11.221678 21.909979 -64.200066 -53.409855 -8.043136 2.716131 -16.915995 34.865120 -45.614079 7.723719 -23.032572 -8.470895 11.037089 21.837297 64.316200 53.419949 -7.940682 -2.709768 16.962269 34.849110 45.611305 -7.727596 -23.033819 -12.673328 17.732828 41.885242 45.353935 1.264164 -0.462944 17.999552 2.176886 -2.152015 -13.490732 -16.882982 -39.476288 45.353977 -1.266047 0.458370 18.289873 -4.114356 3.875778 
0.000000 6.924337 0.952190 -82.000397 0.000000 0.000000 -4.927419 -0.020200 -0.021890 -17.011272 -0.148460 -0.724813 17.998348 0.000000 0.000000 9.302744 17.257410 6.310612 9.139560 -10.433005 23.210382 -65.252884 -53.621704 -7.206980 2.658921 -17.260668 34.847298 -45.614079 7.723719 -23.032572 -9.335165 10.210762 23.119844 65.394997 53.633240 -7.081708 -2.650734 17.317070 34.827991 45.611305 -7.727596 -23.033819 -12.472507 17.474575 41.166710 45.353935 1.264164 -0.462944 17.980089 2.666101 -2.759687 -13.434974 -16.449017 -38.281532 45.353977 -1.266047 0.458370 18.356894 -4.988048 4.833951 
0.000000 7.046891 0.952190 -82.000397 0.000000 0.000000 -4.327149 -0.020084 -0.021995 -18.713760 -0.148205 -0.724803 17.998348 0.000000 0.000000 9.288912 17.074024 6.240336 9.952981 -9.626372 24.495298 -66.315964 -53.824352 -6.360302 2.601491 -17.605318 34.829079 -45.614079 7.723719 -23.032572 -10.177961 9.366090 24.385876 66.484383 53.836819 -6.211878 -2.591449 17.671846 34.806458 45.611305 -7.727596 -23.033819 -12.268602 17.218761 40.448303 45.353935 1.264164 -0.462944 17.965805 3.155447 -3.367397 -13.369951 -16.016363 -37.089275 45.353977 -1.266047 0.458370 18.438658 -5.860274 5.794291 
0.000000 7.169446 0.952190 -82.000397 0.000000 0.000000 -3.726945 -0.019967 -0.022098 -20.414751 -0.147950 -0.724801 17.998348 0.000000 0.000000 9.275327 16.890593 6.170163 10.745399 -8.802737 25.764530 -67.388924 -54.017574 -5.503458 2.543839 -17.949940 34.810467 -45.614079 7.723719 -23.032572 -10.999059 8.504093 25.635248 67.583969 54.030514 -5.331582 -2.531909 18.026588 34.784489 45.611305 -7.727596 -23.033819 -12.061691 16.965467 39.730087 45.353935 1.264164 -0.462944 17.956726 3.644829 -3.975183 -13.295780 -15.585324 -35.899651 45.353977 -1.266047 0.458370 18.535219 -6.730568 6.757005 
0.000000 7.292000 0.952190 -82.000397 0.000000 0.000000 -3.126841 -0.019849 -0.022200 -22.113485 -0.147696 -0.724805 17.998348 0.000000 0.000000 9.261984 16.707113 6.100092 11.516608 -7.963084 27.017962 -68.471382 -54.201252 -4.636860 2.485957 -18.294519 34.791447 -45.614079 7.723719 -23.032572 -11.798272 7.625801 26.867851 68.693268 54.214127 -4.441271 -2.472106 18.381285 34.762089 45.611305 -7.727596 -23.033819 -11.851822 16.714750 39.012100 45.353935 1.264164 -0.462944 17.952843 4.134140 -4.583075 -13.212570 -15.156178 -34.712795 45.353977 -1.266047 0.458370 18.646614 -7.598462 7.722297 
0.000000 7.414555 0.952190 -82.000397 0.000000 0.000000 -2.526868 -0.019730 -0.022301 -23.809235 -0.147442 -0.724818 17.998348 0.000000 0.000000 9.248887 16.523592 6.030121 12.266445 -7.108394 28.255480 -69.562881 -54.375183 -3.760911 2.427843 -18.639061 34.772026 -45.614079 7.723719 -23.032572 -12.575484 6.732252 28.083647 69.811859 54.387524 -3.541398 -2.412038 18.735928 34.739250 45.611305 -7.727596 -23.033819 -11.639058 16.466681 38.294415 45.353935 1.264164 -0.462944 17.954172 4.623285 -5.191105 -13.120449 -14.729215 -33.528851 45.353977 -1.266047 0.458370 18.772873 -8.463485 8.690365 
0.000000 7.292000 0.952190 -82.000397 0.000000 0.000000 -3.126840 -0.019849 -0.022200 -22.113483 -0.147696 -0.724805 17.998348 0.000000 0.000000 9.236035 16.340033 5.960252 11.516608 -7.963084 27.017960 -68.471382 -54.201252 -4.636856 2.485957 -18.294519 34.791447 -45.614079 7.723719 -23.032572 -11.798272 7.625801 26.867851 68.693275 54.214130 -4.441268 -2.472106 18.381285 34.762093 45.611305 -7.727596 -23.033819 -11.851822 16.714754 39.012112 45.353935 1.264164 -0.462944 17.952847 4.134141 -4.583076 -13.212568 -15.156178 -34.712795 45.353977 -1.266047 0.458370 18.646614 -7.598462 7.722297 
0.000000 7.169446 0.952190 -82.000397 0.000000 0.000000 -3.726945 -0.019967 -0.022098 -20.414745 -0.147950 -0.724800 17.998348 0.000000 0.000000 9.223426 16.156431 5.890481 10.745399 -8.802737 25.764530 -67.388924 -54.017574 -5.503458 2.543839 -17.949940 34.810467 -45.614079 7.723719 -23.032572 -10.999059 8.504093 25.635248 67.583969 54.030518 -5.331585 -2.531909 18.026588 34.784489 45.611305 -7.727596 -23.033819 -12.061692 16.965467 39.730087 45.353935 1.264164 -0.462944 17.956730 3.644829 -3.975183 -13.295780 -15.585325 -35.899654 45.353977 -1.266047 0.458370 18.535219 -6.730568 6.757005 
